<svg data-icon-name="bathtub-2" data-style="line" icon_origin_id="14735" viewBox="0 0 24 24" xmlns="http://www.w3.org/2000/svg" data-name="Line Color" id="bathtub-2" class="icon line" width="48" height="48"><path style="fill: none; stroke: rgb(0, 0, 0); stroke-linecap: round; stroke-linejoin: round; stroke-width: 1.5;" d="M11,6h0A3,3,0,0,0,8,3H8A3,3,0,0,0,5,6v7" id="secondary"></path><path style="fill: none; stroke: rgb(0, 0, 0); stroke-linecap: round; stroke-linejoin: round; stroke-width: 1.5;" d="M13,8a2,2,0,0,0-2-2h0A2,2,0,0,0,9,8Z" data-name="secondary" id="secondary-2"></path><path style="fill: none; stroke: rgb(0, 0, 0); stroke-linecap: round; stroke-linejoin: round; stroke-width: 1.5;" d="M17.5,19l.5,2M6.5,19,6,21" data-name="secondary" id="secondary-3"></path><path style="fill: none; stroke: rgb(0, 0, 0); stroke-linecap: round; stroke-linejoin: round; stroke-width: 1.5;" d="M3,13H21m-1,2V13H4v2a4,4,0,0,0,4,4h8A4,4,0,0,0,20,15Z" id="primary"></path></svg>